<?xml version="1.0" encoding="UTF-8" standalone="no"?>
<!-- Generator: Adobe Illustrator 18.1.1, SVG Export Plug-In . SVG Version: 6.00 Build 0)  -->

<svg
   version="1.1"
   id="Capa_1"
   x="0px"
   y="0px"
   viewBox="0 0 512 512"
   xml:space="preserve"
   sodipodi:docname="book icon.svg"
   width="512"
   height="512"
   inkscape:version="1.1 (c4e8f9ed74, 2021-05-24)"
   xmlns:inkscape="http://www.inkscape.org/namespaces/inkscape"
   xmlns:sodipodi="http://sodipodi.sourceforge.net/DTD/sodipodi-0.dtd"
   xmlns="http://www.w3.org/2000/svg"
   xmlns:svg="http://www.w3.org/2000/svg"><defs
   id="defs39" /><sodipodi:namedview
   id="namedview37"
   pagecolor="#ffffff"
   bordercolor="#999999"
   borderopacity="1"
   inkscape:pageshadow="0"
   inkscape:pageopacity="0"
   inkscape:pagecheckerboard="0"
   showgrid="false"
   inkscape:zoom="0.47328782"
   inkscape:cx="657.10543"
   inkscape:cy="317.98832"
   inkscape:current-layer="Capa_1" />
<g
   id="g4">
	
<circle
   style="fill:#b50014;fill-opacity:1;stroke-width:34.556;stop-color:#000000"
   id="path1503"
   cx="256"
   cy="256"
   r="256" /></g>
<g
   id="g6">
</g>
<g
   id="g8">
</g>
<g
   id="g10">
</g>
<g
   id="g12">
</g>
<g
   id="g14">
</g>
<g
   id="g16">
</g>
<g
   id="g18">
</g>
<g
   id="g20">
</g>
<g
   id="g22">
</g>
<g
   id="g24">
</g>
<g
   id="g26">
</g>
<g
   id="g28">
</g>
<g
   id="g30">
</g>
<g
   id="g32">
</g>
<g
   id="g34">
</g>
<g
   id="g4742"
   transform="matrix(2.7284839,0,0,2.7284839,-85.742608,-84.924063)"
   style="fill:#fcc72e;fill-opacity:1">
	<path
   d="M 178.9,153.1 V 91.6 c -3,-1.9 -14.7,-8.5 -28,-8.5 -13.2,0 -21.9,6.5 -24.1,8.4 v 61.1 c 4.2,-2.9 12.5,-7.4 24.1,-7.4 12.4,0 23.1,5.1 28,7.9 z"
   id="path4736"
   style="fill:#fcc72e;fill-opacity:1" />
	<path
   d="M 123.2,152.6 V 91.5 c -2.2,-1.8 -11,-8.4 -24.1,-8.4 -13.3,0 -25,6.6 -28,8.5 v 61.5 c 4.9,-2.8 15.7,-7.9 28,-7.9 11.6,0 19.9,4.5 24.1,7.4 z"
   id="path4738"
   style="fill:#fcc72e;fill-opacity:1" />
	<path
   d="m 182.5,99 v 57.2 c 0,0.5 -0.2,0.9 -0.5,1.3 -0.6,0.7 -1.6,0.7 -2.3,0.3 -0.1,-0.1 -13.4,-9 -28.8,-9 -15.3,0 -24.6,8.7 -24.7,8.8 0,0 0,0 0,0 -0.1,0.1 -0.1,0.1 -0.2,0.2 0,0 0,0 0,0 -0.1,0.1 -0.2,0.1 -0.3,0.1 0,0 0,0 0,0 -0.1,0 -0.2,0.1 -0.2,0.1 0,0 -0.1,0 -0.1,0 -0.1,0 -0.2,0 -0.3,0 0,0 0,0 0,0 v 0 c 0,0 0,0 0,0 -0.1,0 -0.2,0 -0.3,0 0,0 -0.1,0 -0.1,0 -0.1,0 -0.2,0 -0.2,-0.1 0,0 0,0 0,0 -0.1,0 -0.2,-0.1 -0.3,-0.1 0,0 0,0 0,0 -0.1,0 -0.1,-0.1 -0.2,-0.2 0,0 0,0 0,0 -0.1,-0.1 -9.5,-8.8 -24.7,-8.8 -15.4,0 -28.7,8.9 -28.8,9 -0.7,0.5 -1.7,0.4 -2.3,-0.3 -0.3,-0.3 -0.5,-0.8 -0.5,-1.3 V 99 h -5 v 64.1 h 53.4 c 1.6,0 2.9,0.8 3.7,1.9 0.8,1.1 2,1.8 3.4,1.8 h 4.1 c 1.3,0 2.6,-0.7 3.4,-1.8 0.8,-1.2 2.2,-1.9 3.7,-1.9 h 53.4 V 99 Z"
   id="path4740"
   style="fill:#fcc72e;fill-opacity:1" />
</g></svg>
